<?xml version="1.0" encoding="UTF-8"?>
<!DOCTYPE svg PUBLIC "-//W3C//DTD SVG 1.1//EN" "http://www.w3.org/Graphics/SVG/1.1/DTD/svg11.dtd">
<!-- Creator: CorelDRAW -->
<svg xmlns="http://www.w3.org/2000/svg" xml:space="preserve" width="50.5115mm" height="50.5115mm" version="1.1" style="shape-rendering:geometricPrecision; text-rendering:geometricPrecision; image-rendering:optimizeQuality; fill-rule:evenodd; clip-rule:evenodd"
viewBox="0 0 5722.24 5722.24"
 xmlns:xlink="http://www.w3.org/1999/xlink"
 xmlns:xodm="http://www.corel.com/coreldraw/odm/2003">
 <defs>
  <style type="text/css">
   <![CDATA[
    .fil4 {fill:none}
    .fil2 {fill:#FEFEFE}
    .fil0 {fill:#0768E9}
    .fil1 {fill:#3B9AF8}
    .fil3 {fill:#FEFEFE;fill-rule:nonzero}
   ]]>
  </style>
   <clipPath id="id0">
    <path d="M-0 0l5722.24 0 0 5722.24 -5722.24 0 0 -5722.24z"/>
   </clipPath>
 </defs>
 <g id="Layer_x0020_1">
  <metadata id="CorelCorpID_0Corel-Layer"/>
  <g>
  </g>
  <g style="clip-path:url(#id0)">
   <g id="_1471886855952">
    <polygon class="fil0" points="-0,0 5722.24,0 2861.12,2861.13 -0,5722.24 "/>
    <polygon class="fil1" points="5722.24,5722.24 -0,5722.24 2861.13,2861.12 5722.24,0 "/>
    <path class="fil2" d="M2922.02 3240.74l152.85 0 169.45 0 340.75 0 79.76 0 169.45 0 152.85 0c92.96,0 155.87,86.57 202.63,169.03l167.4 295.18 12.94 0 0 2.05c131.73,16.39 234.55,129.54 234.55,265.53l0 411.92c0,147.17 -120.41,267.57 -267.58,267.57 -136.76,0 -250.38,-103.97 -265.78,-236.78l-1233.45 0c-15.4,132.81 -129.02,236.78 -265.78,236.78 -147.17,0 -267.58,-120.4 -267.58,-267.57l0 -411.92c0,-140.27 109.38,-256.22 247.04,-266.79l167.86 -295.97c46.75,-82.46 109.67,-169.03 202.63,-169.03zm61.7 126.08l103.52 0 114.76 0 451.14 0 54.03 0 114.76 0 103.52 0c62.96,0 105.57,58.64 137.25,114.48l126.83 223.66 -250.32 0 -969.25 0 -250.32 0 126.83 -223.66c31.67,-55.84 74.28,-114.48 137.25,-114.48zm1180.49 602.23c93.4,0 169.14,53.58 169.14,119.7 0,66.1 -75.73,119.7 -169.14,119.7 -93.42,0 -169.14,-53.6 -169.14,-119.7 0,-66.11 75.72,-119.7 169.14,-119.7zm-1451.98 0c93.42,0 169.14,53.58 169.14,119.7 0,66.1 -75.72,119.7 -169.14,119.7 -93.4,0 -169.12,-53.6 -169.12,-119.7 0,-66.11 75.72,-119.7 169.12,-119.7z"/>
    <path class="fil3" d="M1433.16 1872.16c0.76,-0.03 265.16,-69.64 265.92,-69.67l242.1 0.03c-35.24,-70.88 -95.67,-197.53 -109.34,-228.24l-162.03 -353.63c-31.71,-67.47 -144.62,-237.98 -2.95,-258.93 37.54,-1.44 120.63,-10.08 145.97,22.75 36.02,46.65 73.23,92.55 110.27,138.36l198.13 243.42 310.72 0 116.42 -0.2c39.41,-0.31 79.91,30.51 79.82,72.59 -0.1,42.61 8.93,150.9 -17.68,180.88 -23.17,20.2 -73.32,20.04 -114.08,18.69l-22.07 0.1 -131.66 0c27.44,33.78 89.48,111.33 131.17,164.28l87.5 0.01c183.98,-0.05 358.95,7.68 511.83,129.19 15.01,11.93 22.96,33.76 23.52,55.66 -0.56,21.9 -8.51,43.74 -23.52,55.67 -152.88,121.5 -327.85,129.24 -511.83,129.18l-87.5 0.01c-41.69,52.95 -103.74,130.49 -131.17,164.26l153.73 0 0 0.12c40.76,-1.36 90.91,-1.52 114.08,18.68 26.61,29.99 17.58,138.28 17.68,180.9 0.09,42.09 -40.41,72.9 -79.82,72.58l-116.42 -0.19 -310.72 0 -198.13 243.42c-37.04,45.79 -74.25,91.69 -110.27,138.36 -25.34,32.82 -108.43,24.18 -145.97,22.75 -141.68,-20.96 -28.76,-191.46 2.95,-258.94l162.03 -353.63c13.67,-30.71 74.1,-157.35 109.34,-228.23l-242.1 0.02c-0.76,-0.03 -265.16,-69.63 -265.92,-69.66 -69.68,72.02 -207.9,212.37 -263.72,267.17 -36.09,35.44 -77.2,99.36 -130.54,95.91 -115.4,-16.35 -45.52,-163.22 -26.84,-234.71 6.97,-24.76 43.06,-132.61 62.53,-189.33 -28.25,-4.54 -94.74,-10.65 -110.25,-33.42 -4.28,-6.26 -5.97,-13.63 -5.53,-20.92 -0.44,-7.3 1.25,-14.65 5.53,-20.91 15.51,-22.76 82,-28.89 110.25,-33.42 -19.47,-56.73 -55.57,-164.58 -62.53,-189.35 -18.68,-71.48 -88.57,-218.35 26.84,-234.69 53.34,-3.47 94.45,60.46 130.54,95.9 55.82,54.81 194.04,195.16 263.72,267.18z"/>
   </g>
  </g>
  <polygon class="fil4" points="-0,0 5722.24,0 5722.24,5722.24 -0,5722.24 "/>
 </g>
</svg>
